<?xml version="1.0" encoding="UTF-8" standalone="no"?>
<!DOCTYPE svg PUBLIC "-//W3C//DTD SVG 1.1//EN"
 "http://www.w3.org/Graphics/SVG/1.1/DTD/svg11.dtd">
<!-- Generated by graphviz version 14.0.5 (20251129.0259)
 -->
<!-- Title: FSM Pages: 1 -->
<svg width="6494pt" height="495pt"
 viewBox="0.00 0.00 6494.00 495.00" xmlns="http://www.w3.org/2000/svg" xmlns:xlink="http://www.w3.org/1999/xlink">
<g id="graph0" class="graph" transform="scale(1 1) rotate(0) translate(4 491.46)">
<title>FSM</title>
<polygon fill="white" stroke="none" points="-4,4 -4,-491.46 6490.36,-491.46 6490.36,4 -4,4"/>
<!-- start -->
<g id="node1" class="node">
<title>start</title>
<ellipse fill="black" stroke="black" cx="1.8" cy="-221.06" rx="1.8" ry="1.8"/>
</g>
<!-- q0 -->
<g id="node2" class="node">
<title>q0</title>
<ellipse fill="none" stroke="black" cx="67.6" cy="-221.06" rx="27" ry="18"/>
<text xml:space="preserve" text-anchor="middle" x="67.6" y="-216.01" font-family="Times New Roman,serif" font-size="14.00">q0</text>
</g>
<!-- start&#45;&gt;q0 -->
<g id="edge1" class="edge">
<title>start&#45;&gt;q0</title>
<path fill="none" stroke="black" d="M3.91,-221.06C7.21,-221.06 17.46,-221.06 28.73,-221.06"/>
<polygon fill="black" stroke="black" points="28.62,-224.56 38.62,-221.06 28.62,-217.56 28.62,-224.56"/>
</g>
<!-- q5 -->
<g id="node3" class="node">
<title>q5</title>
<ellipse fill="none" stroke="black" cx="3747.47" cy="-437.06" rx="20.13" ry="20.13"/>
<ellipse fill="none" stroke="black" cx="3747.47" cy="-437.06" rx="24.13" ry="24.13"/>
<text xml:space="preserve" text-anchor="middle" x="3747.47" y="-432.01" font-family="Times New Roman,serif" font-size="14.00">q5</text>
</g>
<!-- q0&#45;&gt;q5 -->
<g id="edge3" class="edge">
<title>q0&#45;&gt;q5</title>
<path fill="none" stroke="black" d="M67.97,-239.42C68.01,-271.13 73.23,-335.69 112.6,-366.06 289.7,-502.65 894.76,-398.43 1118.35,-404.06 2179.93,-430.77 3483.27,-436.19 3711.56,-436.95"/>
<polygon fill="black" stroke="black" points="3711.53,-440.45 3721.55,-436.98 3711.56,-433.45 3711.53,-440.45"/>
<text xml:space="preserve" text-anchor="middle" x="606.48" y="-440.02" font-family="Times New Roman,serif" font-size="14.00">&#39;!&#39;</text>
</g>
<!-- q6 -->
<g id="node4" class="node">
<title>q6</title>
<ellipse fill="none" stroke="black" cx="3747.47" cy="-336.06" rx="20.13" ry="20.13"/>
<ellipse fill="none" stroke="black" cx="3747.47" cy="-336.06" rx="24.13" ry="24.13"/>
<text xml:space="preserve" text-anchor="middle" x="3747.47" y="-331.01" font-family="Times New Roman,serif" font-size="14.00">q6</text>
</g>
<!-- q0&#45;&gt;q6 -->
<g id="edge10" class="edge">
<title>q0&#45;&gt;q6</title>
<path fill="none" stroke="black" d="M74.19,-238.78C80.54,-255.6 92.69,-279.9 112.6,-291.06 278.31,-383.97 3349.7,-341.87 3711.72,-336.58"/>
<polygon fill="black" stroke="black" points="3711.54,-340.08 3721.48,-336.43 3711.43,-333.08 3711.54,-340.08"/>
<text xml:space="preserve" text-anchor="middle" x="606.48" y="-348.96" font-family="Times New Roman,serif" font-size="14.00">&#39;0&#39;,&#39;1&#39;,&#39;2&#39;,&#39;3&#39;,&#39;4&#39;,&#39;5&#39;,&#39;6&#39;,&#39;7&#39;,&#39;8&#39;,&#39;9&#39;,&#39;A&#39;,&#39;B&#39;,&#39;C&#39;,&#39;D&#39;,&#39;E&#39;,&#39;F&#39;,&#39;G&#39;,&#39;H&#39;,&#39;I&#39;,&#39;J&#39;,&#39;K&#39;,&#39;L&#39;,&#39;M&#39;,&#39;N&#39;,&#39;O&#39;,&#39;P&#39;,&#39;Q&#39;,&#39;R&#39;,&#39;S&#39;,&#39;T&#39;,&#39;U&#39;,&#39;V&#39;,&#39;W&#39;,&#39;X&#39;,&#39;Y&#39;,&#39;Z&#39;,&#39;_&#39;,&#39;a&#39;,&#39;b&#39;,&#39;c&#39;,&#39;d&#39;,&#39;e&#39;,&#39;f&#39;,&#39;g&#39;,&#39;h&#39;,&#39;i&#39;,&#39;j&#39;,&#39;k&#39;,&#39;l&#39;,&#39;m&#39;,&#39;n&#39;,&#39;o&#39;,&#39;p&#39;,&#39;q&#39;,&#39;r&#39;,&#39;s&#39;,&#39;t&#39;,&#39;u&#39;,&#39;v&#39;,&#39;w&#39;,&#39;x&#39;,&#39;y&#39;,&#39;z&#39;</text>
</g>
<!-- q7 -->
<g id="node5" class="node">
<title>q7</title>
<ellipse fill="none" stroke="black" cx="6462.23" cy="-196.06" rx="20.13" ry="20.13"/>
<ellipse fill="none" stroke="black" cx="6462.23" cy="-196.06" rx="24.13" ry="24.13"/>
<text xml:space="preserve" text-anchor="middle" x="6462.23" y="-191.01" font-family="Times New Roman,serif" font-size="14.00">q7</text>
</g>
<!-- q0&#45;&gt;q7 -->
<g id="edge2" class="edge">
<title>q0&#45;&gt;q7</title>
<path fill="none" stroke="black" d="M88.52,-232.83C95.83,-236.54 104.35,-240.16 112.6,-242.06 548.18,-342.5 671.34,-248.28 1118.35,-250.06 1264.41,-250.64 6236.39,-290.98 6376.6,-250.06 6398,-243.81 6419.14,-230.33 6434.94,-218.4"/>
<polygon fill="black" stroke="black" points="6436.68,-221.48 6442.4,-212.55 6432.37,-215.97 6436.68,-221.48"/>
<text xml:space="preserve" text-anchor="middle" x="3747.47" y="-271.57" font-family="Times New Roman,serif" font-size="14.00">0x01,0x02,0x03,0x04,0x05,0x06,0x07,0x08,0x0E,0x0F,0x10,0x11,0x12,0x13,0x14,0x15,0x16,0x17,0x18,0x19,0x1A,0x1B,0x1C,0x1D,0x1E,0x1F,&#39;&quot;&#39;,&#39;$&#39;,&#39;%&#39;,&#39;&#39;&#39;,&#39;.&#39;,&#39;/&#39;,&#39;?&#39;,&#39;@&#39;,&#39;&#39;,&#39;^&#39;,&#39;`&#39;,&#39;|&#39;,&#39;~&#39;,0x7F,0x80,0x81,0x82,0x83,0x84,0x85,0x86,0x87,0x88,0x89,0x8A,0x8B,0x8C,0x8D,0x8E,0x8F,0x90,0x91,0x92,0x93,0x94,0x95,0x96,0x97,0x98,0x99,0x9A,0x9B,0x9C,0x9D,0x9E,0x9F,0xA0,0xA1,0xA2,0xA3,0xA4,0xA5,0xA6,0xA7,0xA8,0xA9,0xAA,0xAB,0xAC,0xAD,0xAE,0xAF,0xB0,0xB1,0xB2,0xB3,0xB4,0xB5,0xB6,0xB7,0xB8,0xB9,0xBA,0xBB,0xBC,0xBD,0xBE,0xBF,0xC0,0xC1,0xC2,0xC3,0xC4,0xC5,0xC6,0xC7,0xC8,0xC9,0xCA,0xCB,0xCC,0xCD,0xCE,0xCF,0xD0,0xD1,0xD2,0xD3,0xD4,0xD5,0xD6,0xD7,0xD8,0xD9,0xDA,0xDB,0xDC,0xDD,0xDE,0xDF,0xE0,0xE1,0xE2,0xE3,0xE4,0xE5,0xE6,0xE7,0xE8,0xE9,0xEA,0xEB,0xEC,0xED,0xEE,0xEF,0xF0,0xF1,0xF2,0xF3,0xF4,0xF5,0xF6,0xF7,0xF8,0xF9,0xFA,0xFB,0xFC,0xFD,0xFE,0xFF</text>
</g>
<!-- q1 -->
<g id="node6" class="node">
<title>q1</title>
<ellipse fill="none" stroke="black" cx="3747.47" cy="-221.06" rx="20.13" ry="20.13"/>
<text xml:space="preserve" text-anchor="middle" x="3747.47" y="-216.01" font-family="Times New Roman,serif" font-size="14.00">q1</text>
</g>
<!-- q0&#45;&gt;q1 -->
<g id="edge8" class="edge">
<title>q0&#45;&gt;q1</title>
<path fill="none" stroke="black" d="M95.06,-221.06C407.11,-221.06 3380.28,-221.06 3715.73,-221.06"/>
<polygon fill="black" stroke="black" points="3715.43,-224.56 3725.43,-221.06 3715.43,-217.56 3715.43,-224.56"/>
<text xml:space="preserve" text-anchor="middle" x="606.48" y="-224.26" font-family="Times New Roman,serif" font-size="14.00">&#39;&#45;&#39;</text>
</g>
<!-- q2 -->
<g id="node7" class="node">
<title>q2</title>
<ellipse fill="none" stroke="black" cx="3747.47" cy="-163.06" rx="20.13" ry="20.13"/>
<text xml:space="preserve" text-anchor="middle" x="3747.47" y="-158.01" font-family="Times New Roman,serif" font-size="14.00">q2</text>
</g>
<!-- q0&#45;&gt;q2 -->
<g id="edge6" class="edge">
<title>q0&#45;&gt;q2</title>
<path fill="none" stroke="black" d="M88.55,-209.58C95.87,-205.96 104.38,-202.42 112.6,-200.56 483.9,-116.29 3385.96,-157.6 3715.95,-162.59"/>
<polygon fill="black" stroke="black" points="3715.44,-166.08 3725.49,-162.73 3715.54,-159.08 3715.44,-166.08"/>
<text xml:space="preserve" text-anchor="middle" x="606.48" y="-203.76" font-family="Times New Roman,serif" font-size="14.00">&#39;+&#39;</text>
</g>
<!-- q3 -->
<g id="node8" class="node">
<title>q3</title>
<ellipse fill="none" stroke="black" cx="3747.47" cy="-105.06" rx="20.13" ry="20.13"/>
<text xml:space="preserve" text-anchor="middle" x="3747.47" y="-100.01" font-family="Times New Roman,serif" font-size="14.00">q3</text>
</g>
<!-- q0&#45;&gt;q3 -->
<g id="edge4" class="edge">
<title>q0&#45;&gt;q3</title>
<path fill="none" stroke="black" d="M71.79,-203.04C76.58,-181.97 87.86,-148.01 112.6,-132.56 274.29,-31.53 3371.5,-96.79 3715.51,-104.37"/>
<polygon fill="black" stroke="black" points="3715.4,-107.86 3725.47,-104.59 3715.55,-100.87 3715.4,-107.86"/>
<text xml:space="preserve" text-anchor="middle" x="606.48" y="-135.76" font-family="Times New Roman,serif" font-size="14.00">&#39;*&#39;</text>
</g>
<!-- q4 -->
<g id="node9" class="node">
<title>q4</title>
<ellipse fill="none" stroke="black" cx="3747.47" cy="-47.06" rx="20.13" ry="20.13"/>
<text xml:space="preserve" text-anchor="middle" x="3747.47" y="-42.01" font-family="Times New Roman,serif" font-size="14.00">q4</text>
</g>
<!-- q0&#45;&gt;q4 -->
<g id="edge12" class="edge">
<title>q0&#45;&gt;q4</title>
<path fill="none" stroke="black" d="M70.76,-202.71C75.76,-163.85 89.47,-75.34 112.6,-57.56 263.79,58.67 3371.86,-35.31 3715.66,-46.08"/>
<polygon fill="black" stroke="black" points="3715.31,-49.57 3725.41,-46.39 3715.53,-42.58 3715.31,-49.57"/>
<text xml:space="preserve" text-anchor="middle" x="606.48" y="-60.76" font-family="Times New Roman,serif" font-size="14.00">&#39;=&#39;</text>
</g>
<!-- q5&#45;&gt;q7 -->
<g id="edge14" class="edge">
<title>q5&#45;&gt;q7</title>
<path fill="none" stroke="black" d="M3771.76,-438.31C4018.61,-451.34 6149.34,-559.02 6376.6,-404.06 6433.88,-365 6452.42,-279.83 6458.4,-231.46"/>
<polygon fill="black" stroke="black" points="6461.85,-232.13 6459.47,-221.8 6454.89,-231.36 6461.85,-232.13"/>
<text xml:space="preserve" text-anchor="middle" x="6407.35" y="-392.06" font-family="Times New Roman,serif" font-size="14.00">&#39;=&#39;</text>
</g>
<!-- q6&#45;&gt;q6 -->
<g id="edge11" class="edge">
<title>q6&#45;&gt;q6</title>
<path fill="none" stroke="black" d="M3722.95,-336.59C3082.61,-350.8 3090.79,-378.19 3747.47,-378.19 4400.32,-378.19 4412.22,-351.12 3783.19,-336.84"/>
<polygon fill="black" stroke="black" points="3783.59,-333.35 3773.52,-336.62 3783.44,-340.35 3783.59,-333.35"/>
<text xml:space="preserve" text-anchor="middle" x="3747.47" y="-381.39" font-family="Times New Roman,serif" font-size="14.00">&#39;0&#39;,&#39;1&#39;,&#39;2&#39;,&#39;3&#39;,&#39;4&#39;,&#39;5&#39;,&#39;6&#39;,&#39;7&#39;,&#39;8&#39;,&#39;9&#39;,&#39;A&#39;,&#39;B&#39;,&#39;C&#39;,&#39;D&#39;,&#39;E&#39;,&#39;F&#39;,&#39;G&#39;,&#39;H&#39;,&#39;I&#39;,&#39;J&#39;,&#39;K&#39;,&#39;L&#39;,&#39;M&#39;,&#39;N&#39;,&#39;O&#39;,&#39;P&#39;,&#39;Q&#39;,&#39;R&#39;,&#39;S&#39;,&#39;T&#39;,&#39;U&#39;,&#39;V&#39;,&#39;W&#39;,&#39;X&#39;,&#39;Y&#39;,&#39;Z&#39;,&#39;_&#39;,&#39;a&#39;,&#39;b&#39;,&#39;c&#39;,&#39;d&#39;,&#39;e&#39;,&#39;f&#39;,&#39;g&#39;,&#39;h&#39;,&#39;i&#39;,&#39;j&#39;,&#39;k&#39;,&#39;l&#39;,&#39;m&#39;,&#39;n&#39;,&#39;o&#39;,&#39;p&#39;,&#39;q&#39;,&#39;r&#39;,&#39;s&#39;,&#39;t&#39;,&#39;u&#39;,&#39;v&#39;,&#39;w&#39;,&#39;x&#39;,&#39;y&#39;,&#39;z&#39;</text>
</g>
<!-- q1&#45;&gt;q7 -->
<g id="edge9" class="edge">
<title>q1&#45;&gt;q7</title>
<path fill="none" stroke="black" d="M3767.99,-220.88C3994.76,-218.79 6126.84,-199.14 6426.34,-196.38"/>
<polygon fill="black" stroke="black" points="6426.25,-199.88 6436.22,-196.29 6426.18,-192.88 6426.25,-199.88"/>
<text xml:space="preserve" text-anchor="middle" x="6407.35" y="-199.71" font-family="Times New Roman,serif" font-size="14.00">&#39;&#45;&#39;,&#39;&gt;&#39;</text>
</g>
<!-- q2&#45;&gt;q7 -->
<g id="edge7" class="edge">
<title>q2&#45;&gt;q7</title>
<path fill="none" stroke="black" d="M3768.05,-162.61C3996.18,-157.43 6146.68,-110.52 6420.1,-175.56 6423.67,-176.41 6427.29,-177.61 6430.81,-179.02"/>
<polygon fill="black" stroke="black" points="6429.08,-182.08 6439.63,-183.06 6432,-175.71 6429.08,-182.08"/>
<text xml:space="preserve" text-anchor="middle" x="6407.35" y="-178.76" font-family="Times New Roman,serif" font-size="14.00">&#39;+&#39;</text>
</g>
<!-- q3&#45;&gt;q7 -->
<g id="edge5" class="edge">
<title>q3&#45;&gt;q7</title>
<path fill="none" stroke="black" d="M3768.06,-104.83C3994.1,-102.29 6105.59,-80.03 6376.6,-134.06 6397.04,-138.13 6402.94,-139.73 6420.1,-151.56 6427.01,-156.32 6433.6,-162.43 6439.41,-168.59"/>
<polygon fill="black" stroke="black" points="6436.53,-170.62 6445.79,-175.77 6441.76,-165.97 6436.53,-170.62"/>
<text xml:space="preserve" text-anchor="middle" x="6407.35" y="-154.76" font-family="Times New Roman,serif" font-size="14.00">&#39;*&#39;</text>
</g>
<!-- q4&#45;&gt;q7 -->
<g id="edge13" class="edge">
<title>q4&#45;&gt;q7</title>
<path fill="none" stroke="black" d="M3767.84,-46.41C3993.52,-38.97 6120.5,28.15 6376.6,-76.06 6413.61,-91.12 6437.03,-132.73 6449.62,-162.72"/>
<polygon fill="black" stroke="black" points="6446.27,-163.77 6453.22,-171.77 6452.78,-161.19 6446.27,-163.77"/>
<text xml:space="preserve" text-anchor="middle" x="6407.35" y="-112.92" font-family="Times New Roman,serif" font-size="14.00">&#39;=&#39;</text>
</g>
</g>
</svg>
