<?xml version="1.0" encoding="UTF-8" standalone="no"?>
<!DOCTYPE svg PUBLIC "-//W3C//DTD SVG 1.1//EN"
 "http://www.w3.org/Graphics/SVG/1.1/DTD/svg11.dtd">
<!-- Generated by graphviz version 14.0.5 (20251129.0259)
 -->
<!-- Title: FSM Pages: 1 -->
<svg width="6509pt" height="496pt"
 viewBox="0.00 0.00 6509.00 496.00" xmlns="http://www.w3.org/2000/svg" xmlns:xlink="http://www.w3.org/1999/xlink">
<g id="graph0" class="graph" transform="scale(1 1) rotate(0) translate(4 491.69)">
<title>FSM</title>
<polygon fill="white" stroke="none" points="-4,4 -4,-491.69 6505.36,-491.69 6505.36,4 -4,4"/>
<!-- start -->
<g id="node1" class="node">
<title>start</title>
<ellipse fill="black" stroke="black" cx="1.8" cy="-221.28" rx="1.8" ry="1.8"/>
</g>
<!-- q0 -->
<g id="node2" class="node">
<title>q0</title>
<ellipse fill="none" stroke="black" cx="67.6" cy="-221.28" rx="27" ry="18"/>
<text xml:space="preserve" text-anchor="middle" x="67.6" y="-216.23" font-family="Times New Roman,serif" font-size="14.00">q0</text>
</g>
<!-- start&#45;&gt;q0 -->
<g id="edge1" class="edge">
<title>start&#45;&gt;q0</title>
<path fill="none" stroke="black" d="M3.91,-221.28C7.21,-221.28 17.46,-221.28 28.73,-221.28"/>
<polygon fill="black" stroke="black" points="28.62,-224.78 38.62,-221.28 28.62,-217.78 28.62,-224.78"/>
</g>
<!-- q5 -->
<g id="node3" class="node">
<title>q5</title>
<ellipse fill="none" stroke="black" cx="3762.47" cy="-437.28" rx="20.13" ry="20.13"/>
<ellipse fill="none" stroke="black" cx="3762.47" cy="-437.28" rx="24.13" ry="24.13"/>
<text xml:space="preserve" text-anchor="middle" x="3762.47" y="-432.23" font-family="Times New Roman,serif" font-size="14.00">q5</text>
</g>
<!-- q0&#45;&gt;q5 -->
<g id="edge3" class="edge">
<title>q0&#45;&gt;q5</title>
<path fill="none" stroke="black" d="M67.97,-239.64C68,-271.36 73.22,-335.93 112.6,-366.28 292.38,-504.86 906.43,-398.64 1133.35,-404.28 2194.93,-430.71 3498.28,-436.36 3726.56,-437.17"/>
<polygon fill="black" stroke="black" points="3726.53,-440.67 3736.55,-437.21 3726.56,-433.67 3726.53,-440.67"/>
<text xml:space="preserve" text-anchor="middle" x="613.98" y="-441.1" font-family="Times New Roman,serif" font-size="14.00">&#39;!&#39;</text>
</g>
<!-- q6 -->
<g id="node4" class="node">
<title>q6</title>
<ellipse fill="none" stroke="black" cx="3762.47" cy="-336.28" rx="20.13" ry="20.13"/>
<ellipse fill="none" stroke="black" cx="3762.47" cy="-336.28" rx="24.13" ry="24.13"/>
<text xml:space="preserve" text-anchor="middle" x="3762.47" y="-331.23" font-family="Times New Roman,serif" font-size="14.00">q6</text>
</g>
<!-- q0&#45;&gt;q6 -->
<g id="edge4" class="edge">
<title>q0&#45;&gt;q6</title>
<path fill="none" stroke="black" d="M74.19,-239.01C80.54,-255.82 92.69,-280.12 112.6,-291.28 279,-384.57 3363.07,-342.14 3726.57,-336.81"/>
<polygon fill="black" stroke="black" points="3726.44,-340.31 3736.39,-336.66 3726.34,-333.31 3726.44,-340.31"/>
<text xml:space="preserve" text-anchor="middle" x="613.98" y="-349.37" font-family="Times New Roman,serif" font-size="14.00">&#39;#&#39;,&#39;0&#39;,&#39;1&#39;,&#39;2&#39;,&#39;3&#39;,&#39;4&#39;,&#39;5&#39;,&#39;6&#39;,&#39;7&#39;,&#39;8&#39;,&#39;9&#39;,&#39;A&#39;,&#39;B&#39;,&#39;C&#39;,&#39;D&#39;,&#39;E&#39;,&#39;F&#39;,&#39;G&#39;,&#39;H&#39;,&#39;I&#39;,&#39;J&#39;,&#39;K&#39;,&#39;L&#39;,&#39;M&#39;,&#39;N&#39;,&#39;O&#39;,&#39;P&#39;,&#39;Q&#39;,&#39;R&#39;,&#39;S&#39;,&#39;T&#39;,&#39;U&#39;,&#39;V&#39;,&#39;W&#39;,&#39;X&#39;,&#39;Y&#39;,&#39;Z&#39;,&#39;_&#39;,&#39;a&#39;,&#39;b&#39;,&#39;c&#39;,&#39;d&#39;,&#39;e&#39;,&#39;f&#39;,&#39;g&#39;,&#39;h&#39;,&#39;i&#39;,&#39;j&#39;,&#39;k&#39;,&#39;l&#39;,&#39;m&#39;,&#39;n&#39;,&#39;o&#39;,&#39;p&#39;,&#39;q&#39;,&#39;r&#39;,&#39;s&#39;,&#39;t&#39;,&#39;u&#39;,&#39;v&#39;,&#39;w&#39;,&#39;x&#39;,&#39;y&#39;,&#39;z&#39;</text>
</g>
<!-- q7 -->
<g id="node5" class="node">
<title>q7</title>
<ellipse fill="none" stroke="black" cx="6477.23" cy="-196.28" rx="20.13" ry="20.13"/>
<ellipse fill="none" stroke="black" cx="6477.23" cy="-196.28" rx="24.13" ry="24.13"/>
<text xml:space="preserve" text-anchor="middle" x="6477.23" y="-191.23" font-family="Times New Roman,serif" font-size="14.00">q7</text>
</g>
<!-- q0&#45;&gt;q7 -->
<g id="edge2" class="edge">
<title>q0&#45;&gt;q7</title>
<path fill="none" stroke="black" d="M88.52,-233.06C95.83,-236.76 104.35,-240.38 112.6,-242.28 554.69,-344.2 679.67,-248.51 1133.35,-250.28 1279.41,-250.86 6251.39,-291.21 6391.6,-250.28 6413,-244.04 6434.14,-230.56 6449.94,-218.63"/>
<polygon fill="black" stroke="black" points="6451.68,-221.7 6457.4,-212.78 6447.37,-216.2 6451.68,-221.7"/>
<text xml:space="preserve" text-anchor="middle" x="3762.47" y="-271.8" font-family="Times New Roman,serif" font-size="14.00">0x01,0x02,0x03,0x04,0x05,0x06,0x07,0x08,0x0E,0x0F,0x10,0x11,0x12,0x13,0x14,0x15,0x16,0x17,0x18,0x19,0x1A,0x1B,0x1C,0x1D,0x1E,0x1F,&#39;&quot;&#39;,&#39;$&#39;,&#39;%&#39;,&#39;&#39;&#39;,&#39;.&#39;,&#39;/&#39;,&#39;?&#39;,&#39;@&#39;,&#39;&#39;,&#39;^&#39;,&#39;`&#39;,&#39;|&#39;,&#39;~&#39;,0x7F,0x80,0x81,0x82,0x83,0x84,0x85,0x86,0x87,0x88,0x89,0x8A,0x8B,0x8C,0x8D,0x8E,0x8F,0x90,0x91,0x92,0x93,0x94,0x95,0x96,0x97,0x98,0x99,0x9A,0x9B,0x9C,0x9D,0x9E,0x9F,0xA0,0xA1,0xA2,0xA3,0xA4,0xA5,0xA6,0xA7,0xA8,0xA9,0xAA,0xAB,0xAC,0xAD,0xAE,0xAF,0xB0,0xB1,0xB2,0xB3,0xB4,0xB5,0xB6,0xB7,0xB8,0xB9,0xBA,0xBB,0xBC,0xBD,0xBE,0xBF,0xC0,0xC1,0xC2,0xC3,0xC4,0xC5,0xC6,0xC7,0xC8,0xC9,0xCA,0xCB,0xCC,0xCD,0xCE,0xCF,0xD0,0xD1,0xD2,0xD3,0xD4,0xD5,0xD6,0xD7,0xD8,0xD9,0xDA,0xDB,0xDC,0xDD,0xDE,0xDF,0xE0,0xE1,0xE2,0xE3,0xE4,0xE5,0xE6,0xE7,0xE8,0xE9,0xEA,0xEB,0xEC,0xED,0xEE,0xEF,0xF0,0xF1,0xF2,0xF3,0xF4,0xF5,0xF6,0xF7,0xF8,0xF9,0xFA,0xFB,0xFC,0xFD,0xFE,0xFF</text>
</g>
<!-- q1 -->
<g id="node6" class="node">
<title>q1</title>
<ellipse fill="none" stroke="black" cx="3762.47" cy="-221.28" rx="20.13" ry="20.13"/>
<text xml:space="preserve" text-anchor="middle" x="3762.47" y="-216.23" font-family="Times New Roman,serif" font-size="14.00">q1</text>
</g>
<!-- q0&#45;&gt;q1 -->
<g id="edge10" class="edge">
<title>q0&#45;&gt;q1</title>
<path fill="none" stroke="black" d="M94.91,-221.28C406.86,-221.28 3393.6,-221.28 3730.59,-221.28"/>
<polygon fill="black" stroke="black" points="3730.34,-224.78 3740.34,-221.28 3730.34,-217.78 3730.34,-224.78"/>
<text xml:space="preserve" text-anchor="middle" x="613.98" y="-224.48" font-family="Times New Roman,serif" font-size="14.00">&#39;&#45;&#39;</text>
</g>
<!-- q2 -->
<g id="node7" class="node">
<title>q2</title>
<ellipse fill="none" stroke="black" cx="3762.47" cy="-163.28" rx="20.13" ry="20.13"/>
<text xml:space="preserve" text-anchor="middle" x="3762.47" y="-158.23" font-family="Times New Roman,serif" font-size="14.00">q2</text>
</g>
<!-- q0&#45;&gt;q2 -->
<g id="edge8" class="edge">
<title>q0&#45;&gt;q2</title>
<path fill="none" stroke="black" d="M88.55,-209.8C95.87,-206.19 104.38,-202.65 112.6,-200.78 485.44,-116.18 3399.48,-157.79 3730.83,-162.81"/>
<polygon fill="black" stroke="black" points="3730.35,-166.3 3740.41,-162.96 3730.46,-159.3 3730.35,-166.3"/>
<text xml:space="preserve" text-anchor="middle" x="613.98" y="-203.98" font-family="Times New Roman,serif" font-size="14.00">&#39;+&#39;</text>
</g>
<!-- q3 -->
<g id="node8" class="node">
<title>q3</title>
<ellipse fill="none" stroke="black" cx="3762.47" cy="-105.28" rx="20.13" ry="20.13"/>
<text xml:space="preserve" text-anchor="middle" x="3762.47" y="-100.23" font-family="Times New Roman,serif" font-size="14.00">q3</text>
</g>
<!-- q0&#45;&gt;q3 -->
<g id="edge6" class="edge">
<title>q0&#45;&gt;q3</title>
<path fill="none" stroke="black" d="M71.79,-203.27C76.58,-182.2 87.86,-148.24 112.6,-132.78 275,-31.31 3386.49,-97.01 3730.63,-104.59"/>
<polygon fill="black" stroke="black" points="3730.32,-108.09 3740.39,-104.81 3730.47,-101.09 3730.32,-108.09"/>
<text xml:space="preserve" text-anchor="middle" x="613.98" y="-135.98" font-family="Times New Roman,serif" font-size="14.00">&#39;*&#39;</text>
</g>
<!-- q4 -->
<g id="node9" class="node">
<title>q4</title>
<ellipse fill="none" stroke="black" cx="3762.47" cy="-47.28" rx="20.13" ry="20.13"/>
<text xml:space="preserve" text-anchor="middle" x="3762.47" y="-42.23" font-family="Times New Roman,serif" font-size="14.00">q4</text>
</g>
<!-- q0&#45;&gt;q4 -->
<g id="edge12" class="edge">
<title>q0&#45;&gt;q4</title>
<path fill="none" stroke="black" d="M70.76,-202.94C75.76,-164.07 89.47,-75.57 112.6,-57.78 264.45,58.95 3386.96,-35.54 3730.81,-46.31"/>
<polygon fill="black" stroke="black" points="3730.65,-49.81 3740.76,-46.63 3730.87,-42.81 3730.65,-49.81"/>
<text xml:space="preserve" text-anchor="middle" x="613.98" y="-60.98" font-family="Times New Roman,serif" font-size="14.00">&#39;=&#39;</text>
</g>
<!-- q5&#45;&gt;q7 -->
<g id="edge14" class="edge">
<title>q5&#45;&gt;q7</title>
<path fill="none" stroke="black" d="M3786.76,-438.53C4033.61,-451.57 6164.34,-559.25 6391.6,-404.28 6448.88,-365.23 6467.42,-280.06 6473.4,-231.69"/>
<polygon fill="black" stroke="black" points="6476.85,-232.35 6474.47,-222.03 6469.89,-231.58 6476.85,-232.35"/>
<text xml:space="preserve" text-anchor="middle" x="6422.35" y="-392.28" font-family="Times New Roman,serif" font-size="14.00">&#39;=&#39;</text>
</g>
<!-- q6&#45;&gt;q6 -->
<g id="edge5" class="edge">
<title>q6&#45;&gt;q6</title>
<path fill="none" stroke="black" d="M3737.95,-336.82C3097.61,-351.02 3105.79,-378.42 3762.47,-378.42 4415.32,-378.42 4427.22,-351.34 3798.19,-337.07"/>
<polygon fill="black" stroke="black" points="3798.59,-333.57 3788.52,-336.85 3798.44,-340.57 3798.59,-333.57"/>
<text xml:space="preserve" text-anchor="middle" x="3762.47" y="-381.62" font-family="Times New Roman,serif" font-size="14.00">&#39;#&#39;,&#39;0&#39;,&#39;1&#39;,&#39;2&#39;,&#39;3&#39;,&#39;4&#39;,&#39;5&#39;,&#39;6&#39;,&#39;7&#39;,&#39;8&#39;,&#39;9&#39;,&#39;A&#39;,&#39;B&#39;,&#39;C&#39;,&#39;D&#39;,&#39;E&#39;,&#39;F&#39;,&#39;G&#39;,&#39;H&#39;,&#39;I&#39;,&#39;J&#39;,&#39;K&#39;,&#39;L&#39;,&#39;M&#39;,&#39;N&#39;,&#39;O&#39;,&#39;P&#39;,&#39;Q&#39;,&#39;R&#39;,&#39;S&#39;,&#39;T&#39;,&#39;U&#39;,&#39;V&#39;,&#39;W&#39;,&#39;X&#39;,&#39;Y&#39;,&#39;Z&#39;,&#39;_&#39;,&#39;a&#39;,&#39;b&#39;,&#39;c&#39;,&#39;d&#39;,&#39;e&#39;,&#39;f&#39;,&#39;g&#39;,&#39;h&#39;,&#39;i&#39;,&#39;j&#39;,&#39;k&#39;,&#39;l&#39;,&#39;m&#39;,&#39;n&#39;,&#39;o&#39;,&#39;p&#39;,&#39;q&#39;,&#39;r&#39;,&#39;s&#39;,&#39;t&#39;,&#39;u&#39;,&#39;v&#39;,&#39;w&#39;,&#39;x&#39;,&#39;y&#39;,&#39;z&#39;</text>
</g>
<!-- q1&#45;&gt;q7 -->
<g id="edge11" class="edge">
<title>q1&#45;&gt;q7</title>
<path fill="none" stroke="black" d="M3782.99,-221.1C4009.76,-219.01 6141.84,-199.37 6441.34,-196.61"/>
<polygon fill="black" stroke="black" points="6441.25,-200.11 6451.22,-196.52 6441.18,-193.11 6441.25,-200.11"/>
<text xml:space="preserve" text-anchor="middle" x="6422.35" y="-199.94" font-family="Times New Roman,serif" font-size="14.00">&#39;&#45;&#39;,&#39;&gt;&#39;</text>
</g>
<!-- q2&#45;&gt;q7 -->
<g id="edge9" class="edge">
<title>q2&#45;&gt;q7</title>
<path fill="none" stroke="black" d="M3783.05,-162.83C4011.18,-157.66 6161.68,-110.75 6435.1,-175.78 6438.67,-176.63 6442.29,-177.84 6445.81,-179.25"/>
<polygon fill="black" stroke="black" points="6444.08,-182.3 6454.63,-183.29 6447,-175.94 6444.08,-182.3"/>
<text xml:space="preserve" text-anchor="middle" x="6422.35" y="-178.98" font-family="Times New Roman,serif" font-size="14.00">&#39;+&#39;</text>
</g>
<!-- q3&#45;&gt;q7 -->
<g id="edge7" class="edge">
<title>q3&#45;&gt;q7</title>
<path fill="none" stroke="black" d="M3783.06,-105.06C4009.1,-102.51 6120.59,-80.26 6391.6,-134.28 6412.04,-138.36 6417.94,-139.96 6435.1,-151.78 6442.01,-156.55 6448.6,-162.66 6454.41,-168.82"/>
<polygon fill="black" stroke="black" points="6451.53,-170.85 6460.79,-176 6456.76,-166.2 6451.53,-170.85"/>
<text xml:space="preserve" text-anchor="middle" x="6422.35" y="-154.98" font-family="Times New Roman,serif" font-size="14.00">&#39;*&#39;</text>
</g>
<!-- q4&#45;&gt;q7 -->
<g id="edge13" class="edge">
<title>q4&#45;&gt;q7</title>
<path fill="none" stroke="black" d="M3782.84,-46.64C4008.52,-39.2 6135.5,27.93 6391.6,-76.28 6428.61,-91.35 6452.03,-132.95 6464.62,-162.95"/>
<polygon fill="black" stroke="black" points="6461.27,-164 6468.22,-172 6467.78,-161.41 6461.27,-164"/>
<text xml:space="preserve" text-anchor="middle" x="6422.35" y="-113.15" font-family="Times New Roman,serif" font-size="14.00">&#39;=&#39;</text>
</g>
</g>
</svg>
